<svg width="11" height="13" viewBox="0 0 11 13" xmlns="http://www.w3.org/2000/svg">
  <path fill-rule="evenodd" clip-rule="evenodd" d="M5.5 1.08334C4.33305 1.08334 3.21389 1.53989 2.38873 2.35255C1.56357 3.16522 1.1 4.26743 1.1 5.41671C1.1 7.09484 2.20866 8.7232 3.42427 9.98692C4.02084 10.6071 4.61927 11.1148 5.06917 11.4676C5.23661 11.5989 5.38286 11.7083 5.5 11.7936C5.61714 11.7083 5.76339 11.5989 5.93083 11.4676C6.38073 11.1148 6.97916 10.6071 7.57573 9.98692C8.79134 8.7232 9.9 7.09484 9.9 5.41671C9.9 4.26743 9.43643 3.16522 8.61127 2.35255C7.78611 1.53989 6.66695 1.08334 5.5 1.08334ZM5.5 12.4584C5.19492 12.9091 5.19478 12.909 5.19462 12.9089L5.19305 12.9079L5.18938 12.9055L5.17677 12.8971C5.16607 12.8899 5.15079 12.8796 5.13126 12.8663C5.09219 12.8397 5.03606 12.8008 4.96529 12.7505C4.8238 12.6499 4.6235 12.503 4.38395 12.3151C3.90573 11.9401 3.26666 11.3983 2.62573 10.732C1.36634 9.42277 0 7.53027 0 5.41671C3.27826e-08 3.98011 0.579463 2.60235 1.61091 1.58652C2.64236 0.570687 4.04131 0 5.5 0C6.95869 0 8.35764 0.570687 9.38909 1.58652C10.4205 2.60235 11 3.98011 11 5.41671C11 7.53027 9.63366 9.42277 8.37427 10.732C7.73334 11.3983 7.09427 11.9401 6.61605 12.3151C6.3765 12.503 6.1762 12.6499 6.03472 12.7505C5.96394 12.8008 5.90781 12.8397 5.86874 12.8663C5.84921 12.8796 5.83393 12.8899 5.82323 12.8971L5.81062 12.9055L5.80695 12.9079L5.80579 12.9087C5.80564 12.9088 5.80509 12.9091 5.5 12.4584ZM5.5 12.4584L5.80509 12.9091C5.62034 13.0304 5.37936 13.0302 5.19462 12.9089L5.5 12.4584Z"/>
  <path fill-rule="evenodd" clip-rule="evenodd" d="M5.5 4.33337C4.89249 4.33337 4.4 4.81839 4.4 5.41671C4.4 6.01502 4.89249 6.50005 5.5 6.50005C6.10751 6.50005 6.6 6.01502 6.6 5.41671C6.6 4.81839 6.10751 4.33337 5.5 4.33337ZM3.3 5.41671C3.3 4.22008 4.28497 3.25002 5.5 3.25002C6.71503 3.25002 7.7 4.22008 7.7 5.41671C7.7 6.61333 6.71503 7.58339 5.5 7.58339C4.28497 7.58339 3.3 6.61333 3.3 5.41671Z"/>
</svg>
