<svg width="18" height="17" viewBox="0 0 18 17" fill="none" xmlns="http://www.w3.org/2000/svg">
<path fill-rule="evenodd" clip-rule="evenodd" d="M1 5C1.55228 5 2 5.44771 2 6V14C2 14.2652 2.10536 14.5196 2.2929 14.7071C2.48044 14.8946 2.73478 15 3 15H15C15.2652 15 15.5196 14.8946 15.7071 14.7071C15.8946 14.5196 16 14.2652 16 14V6C16 5.44771 16.4477 5 17 5C17.5523 5 18 5.44771 18 6V14C18 14.7957 17.6839 15.5587 17.1213 16.1213C16.5587 16.6839 15.7957 17 15 17H3C2.20435 17 1.44129 16.6839 0.878685 16.1213C0.316076 15.5587 0 14.7957 0 14V6C0 5.44771 0.447715 5 1 5Z" fill="#9B0606"/>
<path fill-rule="evenodd" clip-rule="evenodd" d="M9.70711 9.70709C9.31658 10.0976 8.68342 10.0976 8.2929 9.70709L4.2929 5.70709C3.90238 5.31657 3.90238 4.68343 4.2929 4.29291C4.68342 3.90238 5.31658 3.90238 5.70711 4.29291L9.00001 7.58582L12.2929 4.29291C12.6834 3.90238 13.3166 3.90238 13.7071 4.29291C14.0976 4.68343 14.0976 5.31657 13.7071 5.70709L9.70711 9.70709Z" fill="#9B0606"/>
<path fill-rule="evenodd" clip-rule="evenodd" d="M9.00001 10C8.44772 10 8.00001 9.55229 8.00001 9V1C8.00001 0.447715 8.44772 0 9.00001 0C9.55229 0 10 0.447715 10 1V9C10 9.55229 9.55229 10 9.00001 10Z" fill="#9B0606"/>
</svg>
