<svg width="21" height="21" viewBox="0 0 21 21" fill="none" xmlns="http://www.w3.org/2000/svg">
<path d="M18.7 14.8C18.7 17 16.9 18.8 14.8 18.8H5.9C3.7 18.8 2 17 2 14.8V5.9C2 3.7 3.8 1.9 5.9 1.9H14.8C17 1.9 18.7 3.7 18.7 5.9V14.8ZM14.6 0H5.9C2.6 0 0 2.7 0 6V14.7C0 18 2.7 20.7 5.9 20.7H12.7H14.6C17.9 20.7 20.5 18 20.5 14.7V6C20.6 2.7 17.9 0 14.6 0ZM10.3 13.8C8.4 13.8 6.8 12.2 6.8 10.3C6.8 8.4 8.3 6.8 10.3 6.8C12.3 6.8 13.8 8.4 13.8 10.3C13.8 12.3 12.2 13.8 10.3 13.8ZM10.3 5C7.4 5 5 7.4 5 10.4C5 13.4 7.4 15.8 10.3 15.8C13.2 15.8 15.6 13.4 15.6 10.4C15.6 7.4 13.2 5 10.3 5ZM15.8 3.5C15.1 3.5 14.6 4.1 14.6 4.7C14.6 5.3 15.2 5.9 15.8 5.9C16.5 5.9 17 5.3 17 4.7C17 4.1 16.5 3.5 15.8 3.5Z" fill="white"/>
</svg>
