<svg width="20" height="12" viewBox="0 0 20 12" fill="none" xmlns="http://www.w3.org/2000/svg">
<path d="M18.7 0.899998C18.9 0.399998 18.7 0.0999985 18.1 0.0999985H16C15.5 0.0999985 15.2 0.400001 15.1 0.700001C15.1 0.700001 14 3.3 12.5 5C12 5.5 11.8 5.6 11.5 5.6C11.3 5.6 11.2 5.4 11.2 5V0.799999C11.2 0.299999 11 0 10.6 0H7.3C7 0 6.8 0.2 6.8 0.5C6.8 1 7.6 1.1 7.6 2.6V5.8C7.6 6.5 7.4 6.6 7.2 6.6C6.5 6.6 4.7 4 3.7 1C3.5 0.4 3.3 0.200001 2.8 0.200001H0.700005C0.100005 0.200001 0 0.499999 0 0.799999C0 1.3 0.700003 4.1 3.3 7.8C5.1 10.3 7.5 11.7 9.7 11.7C11 11.7 11.2 11.4 11.2 10.9V8.8C11.2 8.2 11.4 8.1 11.7 8.1C12 8.1 12.5 8.3 13.8 9.5C15.3 11 15.5 11.6 16.3 11.6H18.4C19 11.6 19.3 11.3 19.1 10.7C18.9 10.1 18.3 9.2 17.3 8.2C16.8 7.6 16.1 7 15.8 6.7C15.5 6.3 15.6 6.1 15.8 5.8C15.8 5.8 18.5 2.1 18.7 0.899998Z" fill="#9B0606"/>
</svg>
