<svg width="14" height="14" viewBox="0 0 14 14" fill="none" xmlns="http://www.w3.org/2000/svg">
<path d="M11.5975 14C11.5361 14 11.4747 14 11.4134 14C9.44979 13.7565 7.4862 13.087 5.82942 12.0522C4.29536 11.0783 2.94539 9.73913 1.96359 8.21739C0.859072 6.57391 0.184087 4.62609 0 2.67826C0 2.1913 0.122725 1.70435 0.429536 1.33913C0.736347 0.973913 1.16588 0.730435 1.65678 0.669565C1.71814 0.669565 1.77951 0.669565 1.84087 0.669565H3.68174C4.60217 0.669565 5.39988 1.33913 5.52261 2.25217C5.58397 2.8 5.70669 3.34783 5.89078 3.83478C6.13623 4.50435 5.95214 5.23478 5.46124 5.78261L5.03171 6.2087C5.76806 7.30435 6.68849 8.27826 7.85437 9.0087L8.28391 8.58261C8.77481 8.09565 9.57252 7.91304 10.2475 8.15652C10.7384 8.33913 11.2907 8.46087 11.8429 8.52174C12.7634 8.64348 13.4383 9.43478 13.4383 10.3478V12.1739C13.4383 12.6609 13.2543 13.1478 12.8861 13.4522C12.5179 13.7565 12.0884 14 11.5975 14ZM3.68174 1.88696H1.84087C1.65678 1.88696 1.47269 2.0087 1.34997 2.13043C1.28861 2.25217 1.22725 2.37391 1.22725 2.55652C1.41133 4.32174 2.02496 6.02609 3.00675 7.54783C3.92719 8.94783 5.09307 10.1652 6.5044 11.0174C8.03846 11.9913 9.7566 12.6 11.5361 12.7826C11.7816 12.7826 11.9043 12.7217 12.027 12.6C12.1497 12.4783 12.2111 12.3565 12.2111 12.1739V10.3478C12.2111 10.0435 11.9656 9.8 11.6588 9.73913C11.0452 9.67826 10.4316 9.49565 9.81797 9.25217C9.57252 9.1913 9.32707 9.1913 9.14298 9.37391L8.34527 10.1652C8.16119 10.3478 7.85437 10.4087 7.60892 10.287C5.95214 9.37391 4.60217 8.03478 3.68174 6.3913C3.62038 6.14783 3.68174 5.84348 3.86582 5.66087L4.66353 4.86957C4.78626 4.74783 4.84762 4.44348 4.78626 4.26087C4.54081 3.65217 4.41809 3.04348 4.29536 2.43478C4.29536 2.13043 3.98855 1.88696 3.68174 1.88696ZM10.9839 6.14783C10.677 6.14783 10.4316 5.96522 10.3702 5.66087C10.1861 4.68696 9.38843 3.95652 8.40663 3.71304C8.09982 3.65217 7.85437 3.34783 7.91574 2.98261C7.9771 2.67826 8.28391 2.43478 8.65208 2.49565C10.1248 2.8 11.2907 3.89565 11.5361 5.35652C11.5975 5.66087 11.4134 6.02609 11.0452 6.08696C11.0452 6.08696 11.0452 6.14783 10.9839 6.14783ZM13.4383 6.08696C13.1315 6.08696 12.8861 5.84348 12.8247 5.53913C12.5793 3.28696 10.7998 1.52174 8.468 1.21739C8.16119 1.15652 7.91574 0.852174 7.91574 0.547826C7.91574 0.243478 8.28391 0 8.59072 0C11.4747 0.304348 13.6838 2.49565 13.9906 5.35652C14.052 5.66087 13.8065 5.96522 13.4383 6.02609C13.4997 6.08696 13.4383 6.08696 13.4383 6.08696Z" fill="white"/>
</svg>
